<svg xmlns="http://www.w3.org/2000/svg" width="157.117" height="28.977" viewBox="0 0 157.117 28.977"><defs><style>.a{fill:#fff;}</style></defs><path class="a" d="M172.736,298.465a14.481,14.481,0,0,1-5.129-19.577,14.322,14.322,0,0,1,5.129-5.228,13.5,13.5,0,0,1,7.064-1.936,13.663,13.663,0,0,1,5.767,1.237,14.228,14.228,0,0,1,4.65,3.393.543.543,0,0,1,.16.4.531.531,0,0,1-.2.439l-2.874,2.475a.61.61,0,0,1-.439.2.491.491,0,0,1-.4-.2,9.064,9.064,0,0,0-3.014-2.175,8.832,8.832,0,0,0-3.652-.778,8.72,8.72,0,0,0-4.57,1.258,9.31,9.31,0,0,0-3.333,3.412,9.429,9.429,0,0,0,0,9.34,9.312,9.312,0,0,0,3.333,3.413,8.951,8.951,0,0,0,8.042.559,9.184,9.184,0,0,0,2.914-1.976,1.128,1.128,0,0,1,.758-.319.756.756,0,0,1,.559.2l.759.638,1.6,1.437a.882.882,0,0,1,.4.759.653.653,0,0,1-.2.479,13.887,13.887,0,0,1-10.258,4.47,13.606,13.606,0,0,1-7.064-1.916" transform="translate(-165.711 -271.563)"/><path class="a" d="M267.666,300.519a.685.685,0,0,1-.22-.5v-9.18a9.086,9.086,0,0,1,.778-3.253,40.1,40.1,0,0,1,2.375-4.73q.558-1,3.512-6.586l1.477-2.794a1.585,1.585,0,0,1,.4-.519,1.176,1.176,0,0,1,.758-.2h3.832q.718,0,.718.4a.942.942,0,0,1-.12.4L272.834,288.8a3.8,3.8,0,0,0-.439,1.716v9.5a.72.72,0,0,1-.2.5.67.67,0,0,1-.519.22h-3.512a.686.686,0,0,1-.5-.22m-9.28-26.961a.7.7,0,0,1-.08-.319q0-.479.6-.479H262.7a1.872,1.872,0,0,1,.858.12,1.157,1.157,0,0,1,.34.4l.6,1.118c.186.373,1.821,3.416,3.311,6.21a2.455,2.455,0,0,1,.24.918,2.047,2.047,0,0,1-.24.918l-1.676,3.073a.642.642,0,0,1-.6.439.613.613,0,0,1-.559-.4Z" transform="translate(-229.806 -272.281)"/><path class="a" d="M355.654,300.55v-4.111a.247.247,0,0,1,.279-.28h3.076a3.184,3.184,0,0,0,2.415-1.038,3.485,3.485,0,0,0,.978-2.474,3.249,3.249,0,0,0-1-2.415,3.3,3.3,0,0,0-2.395-.978h-2.929a.352.352,0,0,1-.4-.4V284.7a.3.3,0,0,1,.08-.18.246.246,0,0,1,.2-.1h.134a3.157,3.157,0,0,0,2.335-1,3.383,3.383,0,0,0-2.415-5.747h-2.874a1.376,1.376,0,0,0-.978.4,1.278,1.278,0,0,0-.419.958V300.55a.246.246,0,0,1-.1.2.3.3,0,0,1-.179.08h-3.473c-.213,0-.319-.093-.319-.279v-27.38c0-.186.106-.279.319-.279h8.023a8,8,0,0,1,4.111,1.1,8.181,8.181,0,0,1,2.974,2.974,8.143,8.143,0,0,1-.18,8.461,8.377,8.377,0,0,1,3.153,3.053,8.168,8.168,0,0,1,.06,8.282,8.223,8.223,0,0,1-7.124,4.071h-3.076a.247.247,0,0,1-.279-.279" transform="translate(-291.668 -272.371)"/><path class="a" d="M428.838,300.61a.687.687,0,0,1-.219-.5v-18.44a.668.668,0,0,1,.219-.519.721.721,0,0,1,.5-.2h3.393a.684.684,0,0,1,.718.718v2.874q0,.759,1.038.758h10.058a.69.69,0,0,1,.479.18.591.591,0,0,1,.2.459v3.432a.589.589,0,0,1-.2.459.691.691,0,0,1-.479.18H434.367q-.919,0-.918.838V295.2a.827.827,0,0,0,.758.758h13.73a.684.684,0,0,1,.719.719v3.432a.724.724,0,0,1-.2.5.672.672,0,0,1-.519.219h-18.6a.688.688,0,0,1-.5-.219m0-23.03a.729.729,0,0,1-.219-.539v-3.432a.67.67,0,0,1,.219-.519.723.723,0,0,1,.5-.2h18.52a.734.734,0,0,1,.539.219.691.691,0,0,1,.219.5v3.432a.757.757,0,0,1-.219.519.7.7,0,0,1-.539.239h-18.52a.685.685,0,0,1-.5-.219" transform="translate(-347.698 -272.371)"/><path class="a" d="M511.34,300.54a.667.667,0,0,1-.219-.519v-13.93a.749.749,0,0,1,.759-.758h8.261a3.7,3.7,0,0,0,2.694-1.078,3.5,3.5,0,0,0,1.1-2.594,3.549,3.549,0,0,0-1.1-2.634,3.7,3.7,0,0,0-2.694-1.078h-3.353a1,1,0,0,0-.738.3.957.957,0,0,0-.3.7v1a.993.993,0,0,1-.279.7.94.94,0,0,1-.718.3h-2.635a1.022,1.022,0,0,1-1-1v-6.426a.75.75,0,0,1,.759-.758h8.261a9.082,9.082,0,0,1,7.843,4.43,8.728,8.728,0,0,1,.279,8.382,8.85,8.85,0,0,1-2.575,3.073.47.47,0,0,0-.239.4,1.687,1.687,0,0,0,.04.4l4.63,10.337a1.064,1.064,0,0,1,.16.519q0,.439-.559.439h-3.273a2.02,2.02,0,0,1-.659-.08.74.74,0,0,1-.38-.4l-4.151-9.34a.623.623,0,0,0-.319-.319,2.567,2.567,0,0,0-.8-.08h-3.392a1.582,1.582,0,0,0-.739.14.6.6,0,0,0-.259.578v8.781a.67.67,0,0,1-.219.519.772.772,0,0,1-.539.2H511.88a.771.771,0,0,1-.539-.2" transform="translate(-404.807 -272.281)"/><path class="a" d="M591.832,298.245a14.489,14.489,0,0,1,7.284-27.041,13.308,13.308,0,0,1,1.8.12.77.77,0,0,1,.678.958l-.638,3.472a.723.723,0,0,1-.8.639l-1.038-.04a9.108,9.108,0,0,0-4.67,1.257,9.333,9.333,0,0,0-3.412,3.412,9.3,9.3,0,0,0,0,9.34,9.33,9.33,0,0,0,3.412,3.412,9.105,9.105,0,0,0,4.67,1.258,8.248,8.248,0,0,0,5.109-1.657,9.645,9.645,0,0,0,3.233-4.41h-5.149a.82.82,0,0,1-.8-.8v-2.913a.819.819,0,0,1,.8-.8h8.5a2.831,2.831,0,0,1,1.477.32,1.017,1.017,0,0,1,.519.918,15.352,15.352,0,0,1-1.756,7.3,13.466,13.466,0,0,1-4.89,5.249,13.128,13.128,0,0,1-7.045,1.936,14.242,14.242,0,0,1-7.284-1.936" transform="translate(-455.689 -271.203)"/></svg>